# xmcd CD database file
#
# Track frame offsets:
#	150
#	15706
#	30591
#	43700
#	58314
#	71006
#	84459
#	99084
#	115247
#	124849
#	137556
#	153242
#	167028
#	177066
#	189407
#	201371
#	212033
#	219450
#	230285
#	246779
#
# Disc length: 3485 seconds
#
# Revision: 0
# Processed by: cddbd v1.5.2PL0 Copyright (c) Steve Scherf et al.
# Submitted via: CDex 1.51
#
DISCID=120d9b14
DTITLE=Variouse - Balade a Saint - Germain
DYEAR=2014
DGENRE=Jazz
TTITLE0=Christian Chevallier - Acks dilemna
TTITLE1=yves Montana - Venez donc chez moi
TTITLE2=Mouloudji - Je ne sais pas Pourquoi
TTITLE3=Cloude Luter - Saint-Germain dance
TTITLE4=Henri Salvador - J aimerais tellement ca
TTITLE5=Jean Sablon - Je tire ma reverence
TTITLE6=Juliette Greco - Il ny a plus d apres
TTITLE7=Coleman Hawkins - Beyond the sea
TTITLE8=Mireille - Puisque vous partez en voyage
TTITLE9=Sarah Vaughan - That midnight sun will never set
TTITLE10=Edith Piaf - autumn leaves
TTITLE11=Eddie Barclay et Quincy Jones - Quand je monte chez toi
TTITLE12=Peggy Lee - My man
TTITLE13=Josephine Baker - C est ca le vrai bonheur
TTITLE14=Gisele Mackenzie - Cerisier rose et pommier blanc
TTITLE15=Charls Trenet - Marie Therese
TTITLE16=Bob Martin - Voulez vous danser avec moi
TTITLE17=Sammy Davis - JR Back Track
TTITLE18=Robbert Clary- La vie francaise
TTITLE19=Edith Piaf - L effet qu tu m fais
EXTD=YEAR: 2014
EXTT0=
EXTT1=
EXTT2=
EXTT3=
EXTT4=
EXTT5=
EXTT6=
EXTT7=
EXTT8=
EXTT9=
EXTT10=
EXTT11=
EXTT12=
EXTT13=
EXTT14=
EXTT15=
EXTT16=
EXTT17=
EXTT18=
EXTT19=
PLAYORDER=
